<svg width="28" height="28" viewBox="0 0 28 28" fill="none" xmlns="http://www.w3.org/2000/svg">
<path d="M15.3333 3.33317V6.89317L14 8.2265L12.6666 6.89317V3.33317H15.3333ZM24.6666 12.6665V15.3332H21.1066L19.7733 13.9998L21.1066 12.6665H24.6666ZM6.89329 12.6665L8.22663 13.9998L6.89329 15.3332H3.33329V12.6665H6.89329ZM14 19.7732L15.3333 21.1065V24.6665H12.6666V21.1065L14 19.7732ZM18 0.666504H9.99996V7.99984L14 11.9998L18 7.99984V0.666504ZM27.3333 9.99984H20L16 13.9998L20 17.9998H27.3333V9.99984ZM7.99996 9.99984H0.666626V17.9998H7.99996L12 13.9998L7.99996 9.99984ZM14 15.9998L9.99996 19.9998V27.3332H18V19.9998L14 15.9998Z" fill="#5A6EFA"/>
</svg>
