<svg width="28" height="28" viewBox="0 0 28 28" fill="none" xmlns="http://www.w3.org/2000/svg">
<path d="M26.5442 13.2166L14.7709 1.44326C14.2775 0.949922 13.5975 0.669922 12.8909 0.669922H3.33085C1.86418 0.669922 0.664185 1.86992 0.664185 3.33659V12.8966C0.664185 13.6033 0.944184 14.2833 1.45085 14.7766L13.2242 26.5499C14.2642 27.5899 15.9575 27.5899 16.9975 26.5499L26.5575 16.9899C27.5975 15.9499 27.5975 14.2699 26.5442 13.2166ZM15.1042 24.6699L3.33085 12.8966V3.33659H12.8909L24.6642 15.1099L15.1042 24.6699Z" fill="#5A6EFA"/>
<path d="M6.66418 8.66992C7.76875 8.66992 8.66418 7.77449 8.66418 6.66992C8.66418 5.56535 7.76875 4.66992 6.66418 4.66992C5.55961 4.66992 4.66418 5.56535 4.66418 6.66992C4.66418 7.77449 5.55961 8.66992 6.66418 8.66992Z" fill="#5A6EFA"/>
</svg>
