<svg width="26" height="24" viewBox="0 0 26 24" fill="none" xmlns="http://www.w3.org/2000/svg">
<path d="M24.3333 5.70667V2.66667C24.3333 1.2 23.1333 0 21.6666 0H2.99992C1.51992 0 0.333252 1.2 0.333252 2.66667V21.3333C0.333252 22.8 1.51992 24 2.99992 24H21.6666C23.1333 24 24.3333 22.8 24.3333 21.3333V18.2933C25.1199 17.8267 25.6666 16.9867 25.6666 16V8C25.6666 7.01333 25.1199 6.17333 24.3333 5.70667ZM22.9999 8V16H13.6666V8H22.9999ZM2.99992 21.3333V2.66667H21.6666V5.33333H13.6666C12.1999 5.33333 10.9999 6.53333 10.9999 8V16C10.9999 17.4667 12.1999 18.6667 13.6666 18.6667H21.6666V21.3333H2.99992Z" fill="#5A6EFA"/>
<path d="M17.6666 14C18.7712 14 19.6666 13.1046 19.6666 12C19.6666 10.8954 18.7712 10 17.6666 10C16.562 10 15.6666 10.8954 15.6666 12C15.6666 13.1046 16.562 14 17.6666 14Z" fill="#5A6EFA"/>
</svg>
