<svg width="26" height="26" viewBox="0 0 26 26" fill="none" xmlns="http://www.w3.org/2000/svg">
<path d="M24.785 6.86853C25.305 6.34853 25.305 5.50853 24.785 4.98853L21.0117 1.2152C20.4917 0.695195 19.6517 0.695195 19.1317 1.2152L13.145 7.20186L7.95835 2.0152C6.91835 0.975196 5.22501 0.975196 4.18501 2.0152L1.65168 4.54853C0.611679 5.58853 0.611679 7.28186 1.65168 8.32186L6.83835 13.5085L0.825012 19.5219V25.1752H6.47835L12.505 19.1485L17.6917 24.3352C18.9583 25.6019 20.665 25.1352 21.465 24.3352L23.9983 21.8019C25.0383 20.7619 25.0383 19.0685 23.9983 18.0285L18.8117 12.8419L24.785 6.86853ZM3.54501 6.42853L6.06501 3.8952L7.75835 5.58853L6.18501 7.1752L8.06501 9.0552L9.65168 7.46853L11.2517 9.06853L8.71835 11.6019L3.54501 6.42853ZM18.5183 16.3485L16.9317 17.9352L18.8117 19.8152L20.3983 18.2285L22.0917 19.9219L19.5583 22.4552L14.3717 17.2685L16.905 14.7352L18.5183 16.3485ZM5.37168 22.5085H3.49168V20.6285L16.305 7.8152L18.185 9.6952L5.37168 22.5085ZM18.185 5.92186L20.065 4.04186L21.945 5.92186L20.065 7.80186L18.185 5.92186Z" fill="#5A6EFA"/>
</svg>
