<svg width="28" height="28" viewBox="0 0 28 28" fill="none" xmlns="http://www.w3.org/2000/svg">
<path d="M18.6534 10.8398C18.4134 7.11984 16.9067 3.49317 14.08 0.666504C11.2267 3.51984 9.65335 7.1465 9.34669 10.8398C11.0534 11.7465 12.6267 12.9198 14 14.3465C15.3734 12.9332 16.9467 11.7598 18.6534 10.8398ZM14.0667 4.91984C14.9067 6.29317 15.4934 7.8265 15.8 9.4265C15.1734 9.8265 14.5867 10.2665 14.0134 10.7332C13.4534 10.2798 12.8534 9.83984 12.24 9.43984C12.5734 7.83984 13.1867 6.3065 14.0667 4.91984ZM14 18.5998C12.9067 16.9332 11.52 15.4798 9.92002 14.3332C9.74669 14.2132 9.56002 14.1198 9.38669 13.9865C9.56002 14.1065 9.74669 14.2132 9.90669 14.3198C7.30669 12.4398 4.12002 11.3332 0.666687 11.3332C0.666687 18.4265 5.14669 24.4265 11.3734 26.6532C12.2134 26.9598 13.0934 27.1865 14 27.3332C14.9067 27.1732 15.7734 26.9465 16.6267 26.6532C22.8534 24.4265 27.3334 18.4265 27.3334 11.3332C21.76 11.3332 16.8667 14.2265 14 18.5998ZM15.76 24.1332C15.1734 24.3332 14.5867 24.4932 13.9867 24.6265C13.4 24.5065 12.8267 24.3465 12.28 24.1465C7.89335 22.5732 4.68002 18.8265 3.68002 14.3465C5.14669 14.6932 6.54669 15.2932 7.84002 16.1198L7.81335 16.1332C7.98669 16.2532 8.16002 16.3732 8.33335 16.4665L8.42669 16.5198C9.74669 17.4798 10.88 18.6665 11.7734 20.0532L14 23.4665L16.2267 20.0665C17.1467 18.6665 18.2934 17.4665 19.6 16.5198L19.6934 16.4532C19.8134 16.3865 19.9334 16.3065 20.0534 16.2265L20.04 16.1998C21.3467 15.3332 22.8 14.6932 24.32 14.3332C23.32 18.8265 20.12 22.5732 15.76 24.1332ZM9.98669 14.3732C9.96002 14.3598 9.93335 14.3332 9.92002 14.3198C9.92002 14.3198 9.93335 14.3198 9.93335 14.3332C9.94669 14.3465 9.96002 14.3598 9.98669 14.3732Z" fill="#5A6EFA"/>
</svg>
