<svg width="28" height="20" viewBox="0 0 28 20" fill="none" xmlns="http://www.w3.org/2000/svg">
<path d="M9.99996 12.3332C6.87996 12.3332 0.666626 13.8932 0.666626 16.9998V19.3332H19.3333V16.9998C19.3333 13.8932 13.12 12.3332 9.99996 12.3332ZM3.78663 16.6665C4.90663 15.8932 7.61329 14.9998 9.99996 14.9998C12.3866 14.9998 15.0933 15.8932 16.2133 16.6665H3.78663ZM9.99996 9.99984C12.5733 9.99984 14.6666 7.9065 14.6666 5.33317C14.6666 2.75984 12.5733 0.666504 9.99996 0.666504C7.42663 0.666504 5.33329 2.75984 5.33329 5.33317C5.33329 7.9065 7.42663 9.99984 9.99996 9.99984ZM9.99996 3.33317C11.1066 3.33317 12 4.2265 12 5.33317C12 6.43984 11.1066 7.33317 9.99996 7.33317C8.89329 7.33317 7.99996 6.43984 7.99996 5.33317C7.99996 4.2265 8.89329 3.33317 9.99996 3.33317ZM19.3866 12.4132C20.9333 13.5332 22 15.0265 22 16.9998V19.3332H27.3333V16.9998C27.3333 14.3065 22.6666 12.7732 19.3866 12.4132ZM18 9.99984C20.5733 9.99984 22.6666 7.9065 22.6666 5.33317C22.6666 2.75984 20.5733 0.666504 18 0.666504C17.28 0.666504 16.6133 0.839837 16 1.13317C16.84 2.31984 17.3333 3.77317 17.3333 5.33317C17.3333 6.89317 16.84 8.3465 16 9.53317C16.6133 9.8265 17.28 9.99984 18 9.99984Z" fill="#5A6EFA"/>
</svg>
