<svg width="93" height="18" viewBox="0 0 93 18" fill="none" xmlns="http://www.w3.org/2000/svg">
<path d="M0.968395 17.5V0.045454H3.60192V15.233H11.511V17.5H0.968395ZM25.7397 0.045454H28.3817V11.5256C28.3817 12.7472 28.0948 13.8295 27.521 14.7727C26.9471 15.7102 26.1403 16.4489 25.1005 16.9886C24.0607 17.5227 22.842 17.7898 21.4442 17.7898C20.0522 17.7898 18.8363 17.5227 17.7965 16.9886C16.7567 16.4489 15.9499 15.7102 15.3761 14.7727C14.8022 13.8295 14.5153 12.7472 14.5153 11.5256V0.045454H17.1488V11.3125C17.1488 12.1023 17.3221 12.804 17.6687 13.4176C18.021 14.0312 18.5181 14.5142 19.1602 14.8665C19.8022 15.2131 20.5636 15.3864 21.4442 15.3864C22.3306 15.3864 23.0948 15.2131 23.7369 14.8665C24.3846 14.5142 24.8789 14.0312 25.2198 13.4176C25.5664 12.804 25.7397 12.1023 25.7397 11.3125V0.045454ZM31.3498 2.3125V0.045454H44.8583V2.3125H39.4123V17.5H36.7873V2.3125H31.3498ZM47.8434 17.5V0.045454H58.7866V2.3125H50.4769V7.63068H58.2156V9.8892H50.4769V15.233H58.8889V17.5H47.8434ZM76.3924 0.045454V17.5H73.9719L65.0998 4.69886H64.9379V17.5H62.3043V0.045454H64.7418L73.6225 12.8636H73.7844V0.045454H76.3924ZM79.3732 2.3125V0.045454H92.8817V2.3125H87.4357V17.5H84.8107V2.3125H79.3732Z" fill="#434343"/>
</svg>
