<svg width="25" height="24" viewBox="0 0 25 24" fill="none" xmlns="http://www.w3.org/2000/svg">
<path fill-rule="evenodd" clip-rule="evenodd" d="M12.146 3.77832C7.73407 3.77832 4.15747 7.35492 4.15747 11.7669C4.15747 16.1788 7.73407 19.7554 12.146 19.7554C16.558 19.7554 20.1346 16.1788 20.1346 11.7669C20.1346 7.35492 16.558 3.77832 12.146 3.77832ZM2.15747 11.7669C2.15747 6.25035 6.6295 1.77832 12.146 1.77832C17.6626 1.77832 22.1346 6.25035 22.1346 11.7669C22.1346 17.2834 17.6626 21.7554 12.146 21.7554C6.6295 21.7554 2.15747 17.2834 2.15747 11.7669Z" fill="#A4A4A4"/>
<path fill-rule="evenodd" clip-rule="evenodd" d="M17.6897 17.7792C18.0797 17.3882 18.7129 17.3874 19.1039 17.7774L22.628 21.2923C23.019 21.6823 23.0198 22.3154 22.6298 22.7065C22.2398 23.0975 21.6066 23.0983 21.2156 22.7083L17.6916 19.1934C17.3005 18.8034 17.2997 18.1703 17.6897 17.7792Z" fill="#A4A4A4"/>
</svg>
