<svg width="25" height="16" viewBox="0 0 25 16" fill="none" xmlns="http://www.w3.org/2000/svg">
<g clip-path="url(#clip0_427_745)">
<path d="M0.757568 0H25V16H0.757568V0Z" fill="white"/>
<path d="M0.757568 0H25V1.23041H0.757568V0ZM0.757568 2.46082H25V3.69123H0.757568V2.46082ZM0.757568 4.92164H25V6.15205H0.757568V4.92164ZM0.757568 7.38246H25V8.61287H0.757568V7.38246ZM0.757568 9.84795H25V11.0784H0.757568V9.84795ZM0.757568 12.3088H25V13.5392H0.757568V12.3088ZM0.757568 14.7696H25V16H0.757568V14.7696Z" fill="#D80027"/>
<path d="M0.757568 0H12.8788V8.61287H0.757568V0Z" fill="#2E52B2"/>
<path d="M3.01646 6.49796L2.82744 5.89913L2.61951 6.49796H1.99573L2.50137 6.8582L2.31234 7.45703L2.82744 7.08744L3.32835 7.45703L3.1346 6.8582L3.64969 6.49796H3.01646ZM5.67698 6.49796L5.48323 5.89913L5.28476 6.49796H4.66098L5.16662 6.8582L4.97759 7.45703L5.48323 7.08744L5.9936 7.45703L5.80458 6.8582L6.31022 6.49796H5.67698ZM8.34696 6.49796L8.14376 5.89913L7.95473 6.49796H7.31677L7.83659 6.8582L7.63812 7.45703L8.14376 7.08744L8.66358 7.45703L8.4651 6.8582L8.97074 6.49796H8.34696ZM11.0028 6.49796L10.8137 5.89913L10.6153 6.49796H9.98675L10.4971 6.8582L10.3081 7.45703L10.8137 7.08744L11.3241 7.45703L11.1209 6.8582L11.6407 6.49796H11.0028ZM5.48323 3.52252L5.28476 4.12136H4.66098L5.16662 4.49095L4.97759 5.08042L5.48323 4.71551L5.9936 5.08042L5.80458 4.49095L6.31022 4.12136H5.67698L5.48323 3.52252ZM2.82744 3.52252L2.61951 4.12136H1.99573L2.50137 4.49095L2.31234 5.08042L2.82744 4.71551L3.32835 5.08042L3.1346 4.49095L3.64969 4.12136H3.01646L2.82744 3.52252ZM8.14376 3.52252L7.95473 4.12136H7.31677L7.83659 4.49095L7.63812 5.08042L8.14376 4.71551L8.66358 5.08042L8.4651 4.49095L8.97074 4.12136H8.34696L8.14376 3.52252ZM10.8137 3.52252L10.6153 4.12136H9.98675L10.4971 4.49095L10.3081 5.08042L10.8137 4.71551L11.3241 5.08042L11.1209 4.49095L11.6407 4.12136H11.0028L10.8137 3.52252ZM2.82744 1.15527L2.61951 1.74475H1.99573L2.50137 2.11434L2.31234 2.70849L2.82744 2.3389L3.32835 2.70849L3.1346 2.11434L3.64969 1.74475H3.01646L2.82744 1.15527ZM5.48323 1.15527L5.28476 1.74475H4.66098L5.16662 2.11434L4.97759 2.70849L5.48323 2.3389L5.9936 2.70849L5.80458 2.11434L6.31022 1.74475H5.67698L5.48323 1.15527ZM8.14376 1.15527L7.95473 1.74475H7.31677L7.83659 2.11434L7.63812 2.70849L8.14376 2.3389L8.66358 2.70849L8.4651 2.11434L8.97074 1.74475H8.34696L8.14376 1.15527ZM10.8137 1.15527L10.6153 1.74475H9.98675L10.4971 2.11434L10.3081 2.70849L10.8137 2.3389L11.3241 2.70849L11.1209 2.11434L11.6407 1.74475H11.0028L10.8137 1.15527Z" fill="white"/>
</g>
<defs>
<clipPath id="clip0_427_745">
<rect width="24.2424" height="16" fill="white" transform="translate(0.757568)"/>
</clipPath>
</defs>
</svg>
